<svg xmlns="http://www.w3.org/2000/svg" width="100" height="100"><g opacity=".1"><path d="M75 42.714c5.915 0 10.714-4.799 10.714-10.714S80.915 21.286 75 21.286 64.286 26.085 64.286 32 69.085 42.714 75 42.714z"/><path d="M93.75 7H6.25C2.768 7 0 9.835 0 13.317v73.08c0 3.482 2.768 6.317 6.25 6.317h87.5c3.482 0 6.25-2.835 6.25-6.317v-73.08C100 9.835 97.232 7 93.75 7zM70.737 51.13c-.67-.782-1.697-1.384-2.858-1.384-1.138 0-1.942.535-2.857 1.272l-4.174 3.527c-.87.625-1.562 1.049-2.567 1.049-.96 0-1.83-.357-2.455-.915-.223-.201-.625-.58-.96-.916l-12.009-12.99a4.922 4.922 0 0 0-3.728-1.675c-1.495 0-2.879.737-3.75 1.741L7.143 74.902V16.754c.223-1.517 1.406-2.611 2.924-2.611h79.844c1.54 0 2.79 1.138 2.88 2.678l.066 58.125-22.12-23.817z"/></g></svg>