<svg xmlns="http://www.w3.org/2000/svg" width="100" height="100" viewBox="0 0 100 100">
  <path fill-opacity=".1" d="M50,87.5 C29.3758523,87.5 12.5,70.6235795 12.5,50 C12.5,29.3747159 29.3758523,12.5 50,12.5 C60.3125,12.5 69.6872159,16.875 76.2517045,23.7502841 L56.25,43.75 L100,43.75 L100,0 L85.3130682,14.6880682 C76.2517045,5.62443182 63.7517045,0 50,0 C22.5008523,0 0,22.5008523 0,50 C0,77.4991477 22.1857955,100 50,100 C73.0241477,100 92.1269886,84.6210227 98.1252841,63.6363636 L84.9005682,63.6363636 C79.5752841,77.7161932 65.8272727,87.5 50,87.5 Z"/>
</svg>
