<svg xmlns="http://www.w3.org/2000/svg" width="512" height="512" viewBox="0 0 512 512">
  <g fill="#CFC4BD" fill-opacity=".6" transform="translate(21 53)">
    <path d="M175,374 C245.692448,374 303,316.692448 303,246 C303,198.871701 260.333333,127.538368 175,32 C89.6666667,127.538368 47,198.871701 47,246 C47,316.692448 104.307552,374 175,374 Z" transform="rotate(18 175 203)"/>
    <path d="M295,374 C365.692448,374 423,316.692448 423,246 C423,198.871701 380.333333,127.538368 295,32 C209.666667,127.538368 167,198.871701 167,246 C167,316.692448 224.307552,374 295,374 Z" transform="rotate(-18 295 203)"/>
    <path d="M235,374 C305.692448,374 363,316.692448 363,246 C363,198.871701 320.333333,127.538368 235,32 C149.666667,127.538368 107,198.871701 107,246 C107,316.692448 164.307552,374 235,374 Z"/>
  </g>
</svg>
