<svg xmlns="http://www.w3.org/2000/svg" width="512" height="512" viewBox="0 0 512 512">
  <g fill-opacity=".3" transform="translate(0 35)">
    <path d="M190.638298,407.162562 C267.647943,407.162562 330.076596,344.773552 330.076596,267.812808 C330.076596,216.505645 283.597163,138.847189 190.638298,34.8374384 C97.6794326,138.847189 51.2,216.505645 51.2,267.812808 C51.2,344.773552 113.628652,407.162562 190.638298,407.162562 Z" transform="rotate(18 190.638 221)"/>
    <path d="M321.361702,407.162562 C398.371348,407.162562 460.8,344.773552 460.8,267.812808 C460.8,216.505645 414.320567,138.847189 321.361702,34.8374384 C228.402837,138.847189 181.923404,216.505645 181.923404,267.812808 C181.923404,344.773552 244.352057,407.162562 321.361702,407.162562 Z" transform="rotate(-18 321.362 221)"/>
    <path d="M256,407.162562 C333.009645,407.162562 395.438298,344.773552 395.438298,267.812808 C395.438298,216.505645 348.958865,138.847189 256,34.8374384 C163.041135,138.847189 116.561702,216.505645 116.561702,267.812808 C116.561702,344.773552 178.990355,407.162562 256,407.162562 Z"/>
  </g>
</svg>
