<svg xmlns="http://www.w3.org/2000/svg" width="26" height="22" viewBox="0 0 26 22">
  <g fill="none" fill-rule="evenodd" stroke="#FFF" stroke-width=".625" transform="translate(-.77 -.895)">
    <path d="M10.2539062,21.9140625 C14.3960419,21.9140625 17.7539062,18.5561981 17.7539062,14.4140625 C17.7539062,11.6526387 15.2539062,7.47295125 10.2539062,1.875 C5.25390625,7.47295125 2.75390625,11.6526387 2.75390625,14.4140625 C2.75390625,18.5561981 6.11177063,21.9140625 10.2539062,21.9140625 Z" transform="rotate(18 10.254 11.895)"/>
    <path d="M17.2851562,21.9140625 C21.4272919,21.9140625 24.7851562,18.5561981 24.7851562,14.4140625 C24.7851562,11.6526387 22.2851562,7.47295125 17.2851562,1.875 C12.2851563,7.47295125 9.78515625,11.6526387 9.78515625,14.4140625 C9.78515625,18.5561981 13.1430206,21.9140625 17.2851562,21.9140625 Z" transform="rotate(-18 17.285 11.895)"/>
    <path d="M13.7695312,21.9140625 C17.9116669,21.9140625 21.2695312,18.5561981 21.2695312,14.4140625 C21.2695312,11.6526387 18.7695312,7.47295125 13.7695312,1.875 C8.76953127,7.47295125 6.26953125,11.6526387 6.26953125,14.4140625 C6.26953125,18.5561981 9.62739562,21.9140625 13.7695312,21.9140625 Z"/>
  </g>
</svg>
